<?xml version="1.0" encoding="UTF-8" standalone="no" ?>
<!DOCTYPE svg PUBLIC "-//W3C//DTD SVG 1.1//EN" "http://www.w3.org/Graphics/SVG/1.1/DTD/svg11.dtd">
<svg xmlns="http://www.w3.org/2000/svg" xmlns:xlink="http://www.w3.org/1999/xlink" version="1.1" width="1640" height="624" viewBox="0 0 1640 624" xml:space="preserve">
<desc>Created with Fabric.js 5.3.0</desc>
<defs>
</defs>
<g transform="matrix(2.411764705882353 0 0 2.411764705882353 820 312.3235294117647)" id="background-c8044804-cab2-4b86-a5a0-61917f85ada8"  >
<rect style="stroke: none; stroke-width: 0; stroke-dasharray: none; stroke-linecap: butt; stroke-dashoffset: 0; stroke-linejoin: miter; stroke-miterlimit: 4; fill: rgb(223,239,251); fill-rule: nonzero; opacity: 1;"  paint-order="stroke"  x="-340" y="-129.5" rx="0" ry="0" width="680" height="259" />
</g>
<g transform="matrix(3.8957318728295522 0 0 0.2089637777710038 1209.397689057354 409.1514220488259)" id="shape-1dafd952-aa1a-4afb-9507-8043e3758e49-logo"  >
<g style=""  paint-order="stroke"   >
		<g transform="matrix(1 0 0 1 0 0)" id="Layer_1"  >
<rect style="stroke: none; stroke-width: 1; stroke-dasharray: none; stroke-linecap: butt; stroke-dashoffset: 0; stroke-linejoin: miter; stroke-miterlimit: 4; fill: rgb(14,77,129); fill-rule: nonzero; opacity: 1;"  paint-order="stroke"  x="-100" y="-100" rx="0" ry="0" width="200" height="200" />
</g>
</g>
</g>
<g transform="matrix(2.411764705882353 0 0 2.411764705882353 1194.2826742780676 210.84884546045976)" id="text-logo"  >
<g style=""  paint-order="stroke"   >
		<g transform="matrix(1 0 0 1 0 0)" id="text-logo-path-0"  >
<path style="stroke: none; stroke-width: 0; stroke-dasharray: none; stroke-linecap: butt; stroke-dashoffset: 0; stroke-linejoin: miter; stroke-miterlimit: 4; fill: rgb(14,77,129); fill-rule: nonzero; opacity: 1;"  paint-order="stroke"  transform=" translate(-142.67499999999998, 17.775000000000002)" d="M 8.01 0 L 2.24 0 Q 2.04 0 2.04 -0.26 L 2.04 -0.26 L 2.14 -35.29 Q 2.14 -35.5 2.35 -35.5 L 2.35 -35.5 L 8.57 -35.5 Q 8.77 -35.5 8.93 -35.29 L 8.93 -35.29 L 13.57 -28.56 L 18.21 -35.29 Q 18.36 -35.5 18.56 -35.5 L 18.56 -35.5 L 24.84 -35.5 Q 25.04 -35.5 25.04 -35.29 L 25.04 -35.29 L 25.14 -0.26 Q 25.14 0 24.94 0 L 24.94 0 L 19.18 0 Q 18.97 0 18.97 -0.26 L 18.97 -0.26 L 18.92 -26.27 L 13.57 -18.51 L 8.26 -26.27 L 8.21 -0.26 Q 8.21 0 8.01 0 L 8.01 0 Z M 35.45 0 L 29.68 0 Q 29.43 0 29.43 -0.26 L 29.43 -0.26 L 29.48 -35.29 Q 29.48 -35.5 29.68 -35.5 L 29.68 -35.5 L 35.39 -35.5 Q 35.6 -35.5 35.6 -35.29 L 35.6 -35.29 L 35.65 -0.26 Q 35.65 0 35.45 0 L 35.45 0 Z M 49.52 0.51 L 49.52 0.51 Q 46.72 0.51 44.45 -0.89 Q 42.18 -2.3 40.85 -4.64 Q 39.52 -6.99 39.52 -9.89 L 39.52 -9.89 L 39.58 -25.81 Q 39.58 -28.61 40.88 -30.93 Q 42.18 -33.25 44.45 -34.65 Q 46.72 -36.06 49.52 -36.06 L 49.52 -36.06 Q 52.33 -36.06 54.57 -34.68 Q 56.81 -33.3 58.14 -30.98 Q 59.47 -28.66 59.47 -25.81 L 59.47 -25.81 L 59.47 -23.46 Q 59.47 -23.26 59.26 -23.26 L 59.26 -23.26 L 53.55 -23.26 Q 53.35 -23.26 53.35 -23.46 L 53.35 -23.46 L 53.35 -25.81 Q 53.35 -27.49 52.25 -28.71 Q 51.15 -29.94 49.52 -29.94 L 49.52 -29.94 Q 47.69 -29.94 46.72 -28.69 Q 45.75 -27.44 45.75 -25.81 L 45.75 -25.81 L 45.75 -9.89 Q 45.75 -8.01 46.84 -6.83 Q 47.94 -5.66 49.52 -5.66 L 49.52 -5.66 Q 51.15 -5.66 52.25 -6.96 Q 53.35 -8.26 53.35 -9.89 L 53.35 -9.89 L 53.35 -12.24 Q 53.35 -12.44 53.55 -12.44 L 53.55 -12.44 L 59.31 -12.44 Q 59.52 -12.44 59.52 -12.24 L 59.52 -12.24 L 59.52 -9.89 Q 59.52 -6.99 58.17 -4.64 Q 56.81 -2.3 54.57 -0.89 Q 52.33 0.51 49.52 0.51 Z M 69.21 0 L 63.44 0 Q 63.24 0 63.24 -0.26 L 63.24 -0.26 L 63.34 -35.29 Q 63.34 -35.5 63.55 -35.5 L 63.55 -35.5 L 73.85 -35.5 Q 76.6 -35.5 78.92 -34.14 Q 81.24 -32.79 82.62 -30.52 Q 84 -28.25 84 -25.4 L 84 -25.4 Q 84 -23.51 83.44 -22.01 Q 82.88 -20.5 82.11 -19.46 Q 81.34 -18.41 80.73 -17.9 L 80.73 -17.9 Q 83.49 -14.84 83.49 -10.71 L 83.49 -10.71 L 83.54 -0.26 Q 83.54 0 83.28 0 L 83.28 0 L 77.52 0 Q 77.32 0 77.32 -0.15 L 77.32 -0.15 L 77.32 -10.71 Q 77.32 -12.55 76.02 -13.9 Q 74.72 -15.25 72.83 -15.25 L 72.83 -15.25 L 69.46 -15.25 L 69.41 -0.26 Q 69.41 0 69.21 0 L 69.21 0 Z M 69.46 -29.38 L 69.46 -21.37 L 73.85 -21.37 Q 75.43 -21.37 76.65 -22.54 Q 77.88 -23.72 77.88 -25.4 L 77.88 -25.4 Q 77.88 -27.03 76.68 -28.2 Q 75.48 -29.38 73.85 -29.38 L 73.85 -29.38 L 69.46 -29.38 Z M 97 0.51 L 97 0.51 Q 94.25 0.51 91.98 -0.89 Q 89.71 -2.3 88.33 -4.62 Q 86.96 -6.94 86.96 -9.74 L 86.96 -9.74 L 87.01 -25.91 Q 87.01 -28.71 88.36 -31.01 Q 89.71 -33.3 92 -34.68 Q 94.3 -36.06 97 -36.06 L 97 -36.06 Q 99.76 -36.06 102 -34.68 Q 104.24 -33.3 105.6 -31.01 Q 106.95 -28.71 106.95 -25.91 L 106.95 -25.91 L 107 -9.74 Q 107 -6.94 105.65 -4.62 Q 104.3 -2.3 102.03 -0.89 Q 99.76 0.51 97 0.51 Z M 97 -5.66 L 97 -5.66 Q 98.53 -5.66 99.68 -6.91 Q 100.83 -8.16 100.83 -9.74 L 100.83 -9.74 L 100.78 -25.91 Q 100.78 -27.59 99.71 -28.76 Q 98.63 -29.94 97 -29.94 L 97 -29.94 Q 95.42 -29.94 94.3 -28.79 Q 93.18 -27.64 93.18 -25.91 L 93.18 -25.91 L 93.18 -9.74 Q 93.18 -8.06 94.3 -6.86 Q 95.42 -5.66 97 -5.66 Z M 116.84 0 L 111.13 0 Q 110.87 0 110.87 -0.26 L 110.87 -0.26 L 110.98 -35.29 Q 110.98 -35.5 111.18 -35.5 L 111.18 -35.5 L 120.97 -35.5 Q 125.66 -35.5 128.39 -32.64 Q 131.12 -29.78 131.12 -24.89 L 131.12 -24.89 Q 131.12 -21.27 129.69 -18.62 Q 128.27 -15.96 125.97 -14.54 Q 123.68 -13.11 120.97 -13.11 L 120.97 -13.11 L 117.1 -13.11 L 117.1 -0.26 Q 117.1 0 116.84 0 L 116.84 0 Z M 117.1 -29.38 L 117.1 -19.28 L 120.97 -19.28 Q 122.6 -19.28 123.8 -20.83 Q 125 -22.39 125 -24.89 L 125 -24.89 Q 125 -26.88 123.93 -28.15 Q 122.86 -29.43 120.97 -29.43 L 120.97 -29.43 L 117.1 -29.38 Z M 130.31 -0.26 L 130.31 -0.26 L 136.63 -35.29 Q 136.68 -35.5 136.88 -35.5 L 136.88 -35.5 L 144.28 -35.5 Q 144.48 -35.5 144.53 -35.29 L 144.53 -35.29 L 150.6 -0.26 Q 150.65 0 150.4 0 L 150.4 0 L 144.74 0 Q 144.53 0 144.48 -0.26 L 144.48 -0.26 L 143.92 -3.98 L 136.99 -3.98 L 136.43 -0.26 Q 136.37 0 136.17 0 L 136.17 0 L 130.51 0 Q 130.31 0 130.31 -0.26 Z M 140.3 -23.77 L 138.01 -9.44 L 142.9 -9.44 L 140.81 -23.77 L 140.51 -25.65 L 140.3 -23.77 Z M 162.18 0 L 156.31 0 Q 156.16 0 156.16 -0.2 L 156.16 -0.2 L 156.21 -14.69 L 149.38 -35.29 Q 149.33 -35.5 149.53 -35.5 L 149.53 -35.5 L 155.19 -35.5 Q 155.45 -35.5 155.5 -35.29 L 155.5 -35.29 L 159.27 -21.57 L 163.1 -35.29 Q 163.15 -35.5 163.35 -35.5 L 163.35 -35.5 L 169.06 -35.5 Q 169.27 -35.5 169.22 -35.29 L 169.22 -35.29 L 162.33 -14.89 L 162.38 -0.2 Q 162.38 0 162.18 0 L 162.18 0 Z M 177.99 0 L 172.23 0 Q 172.02 0 172.02 -0.26 L 172.02 -0.26 L 172.13 -35.29 Q 172.13 -35.5 172.33 -35.5 L 172.33 -35.5 L 178.55 -35.5 Q 178.75 -35.5 178.91 -35.29 L 178.91 -35.29 L 183.55 -28.56 L 188.19 -35.29 Q 188.34 -35.5 188.55 -35.5 L 188.55 -35.5 L 194.82 -35.5 Q 195.02 -35.5 195.02 -35.29 L 195.02 -35.29 L 195.13 -0.26 Q 195.13 0 194.92 0 L 194.92 0 L 189.16 0 Q 188.96 0 188.96 -0.26 L 188.96 -0.26 L 188.9 -26.27 L 183.55 -18.51 L 178.25 -26.27 L 178.19 -0.26 Q 178.19 0 177.99 0 L 177.99 0 Z M 216.09 0 L 199.61 0 Q 199.41 0 199.41 -0.26 L 199.41 -0.26 L 199.46 -35.29 Q 199.46 -35.5 199.66 -35.5 L 199.66 -35.5 L 216.04 -35.5 Q 216.24 -35.5 216.24 -35.24 L 216.24 -35.24 L 216.24 -29.53 Q 216.24 -29.33 216.04 -29.33 L 216.04 -29.33 L 205.58 -29.33 L 205.58 -21.37 L 216.04 -21.37 Q 216.24 -21.37 216.24 -21.17 L 216.24 -21.17 L 216.29 -15.4 Q 216.29 -15.2 216.09 -15.2 L 216.09 -15.2 L 205.58 -15.2 L 205.58 -6.27 L 216.09 -6.27 Q 216.29 -6.27 216.29 -6.02 L 216.29 -6.02 L 216.29 -0.2 Q 216.29 0 216.09 0 L 216.09 0 Z M 226.39 0 L 221.29 0 Q 220.88 0 220.88 -0.36 L 220.88 -0.36 L 220.83 -35.09 Q 220.83 -35.5 221.24 -35.5 L 221.24 -35.5 L 225.83 -35.5 L 234.45 -15.4 L 234.19 -35.09 Q 234.19 -35.5 234.65 -35.5 L 234.65 -35.5 L 239.7 -35.5 Q 240.01 -35.5 240.01 -35.09 L 240.01 -35.09 L 240.06 -0.31 Q 240.06 0 239.8 0 L 239.8 0 L 235.31 0 L 226.49 -18.77 L 226.85 -0.41 Q 226.85 0 226.39 0 L 226.39 0 Z M 255.36 0 L 249.59 0 Q 249.39 0 249.39 -0.26 L 249.39 -0.26 L 249.39 -29.33 L 242.76 -29.33 Q 242.5 -29.33 242.5 -29.58 L 242.5 -29.58 L 242.56 -35.29 Q 242.56 -35.5 242.76 -35.5 L 242.76 -35.5 L 262.14 -35.5 Q 262.39 -35.5 262.39 -35.29 L 262.39 -35.29 L 262.39 -29.58 Q 262.39 -29.33 262.19 -29.33 L 262.19 -29.33 L 255.51 -29.33 L 255.56 -0.26 Q 255.56 0 255.36 0 L 255.36 0 Z M 273.31 0.51 L 273.31 0.51 Q 270.56 0.51 268.29 -0.89 Q 266.02 -2.3 264.66 -4.62 Q 263.31 -6.94 263.31 -9.74 L 263.31 -9.74 L 263.31 -12.09 Q 263.31 -12.34 263.57 -12.34 L 263.57 -12.34 L 269.28 -12.34 Q 269.48 -12.34 269.48 -12.09 L 269.48 -12.09 L 269.48 -9.74 Q 269.48 -8.06 270.61 -6.86 Q 271.73 -5.66 273.31 -5.66 L 273.31 -5.66 Q 274.89 -5.66 276.01 -6.89 Q 277.13 -8.11 277.13 -9.74 L 277.13 -9.74 Q 277.13 -11.63 274.69 -13.01 L 274.69 -13.01 Q 273.87 -13.46 272.14 -14.43 Q 270.4 -15.4 268.87 -16.27 L 268.87 -16.27 Q 266.07 -17.9 264.72 -20.37 Q 263.36 -22.85 263.36 -25.96 L 263.36 -25.96 Q 263.36 -28.82 264.74 -31.08 Q 266.12 -33.35 268.39 -34.68 Q 270.66 -36.01 273.31 -36.01 L 273.31 -36.01 Q 276.01 -36.01 278.28 -34.65 Q 280.55 -33.3 281.9 -31.03 Q 283.25 -28.76 283.25 -25.96 L 283.25 -25.96 L 283.25 -21.78 Q 283.25 -21.57 283.05 -21.57 L 283.05 -21.57 L 277.34 -21.57 Q 277.13 -21.57 277.13 -21.78 L 277.13 -21.78 L 277.08 -25.96 Q 277.08 -27.74 275.96 -28.87 Q 274.84 -29.99 273.31 -29.99 L 273.31 -29.99 Q 271.73 -29.99 270.61 -28.79 Q 269.48 -27.59 269.48 -25.96 L 269.48 -25.96 Q 269.48 -24.28 270.2 -23.15 Q 270.91 -22.03 272.8 -21.01 L 272.8 -21.01 Q 273.05 -20.86 273.79 -20.48 Q 274.53 -20.09 275.4 -19.61 Q 276.27 -19.13 276.96 -18.77 Q 277.64 -18.41 277.8 -18.31 L 277.8 -18.31 Q 280.35 -16.88 281.83 -14.82 Q 283.31 -12.75 283.31 -9.74 L 283.31 -9.74 Q 283.31 -6.83 281.95 -4.51 Q 280.6 -2.19 278.33 -0.84 Q 276.06 0.51 273.31 0.51 Z" stroke-linecap="round" />
</g>
</g>
</g>
<g transform="matrix(2.411764705882353 0 0 2.411764705882353 1203.9580050913635 337.83669236535627)" id="tagline-2e8aed6d-0835-4f44-b092-4371114e603c-logo"  >
<g style=""  paint-order="stroke"   >
		<g transform="matrix(1 0 0 1 0 0)" id="tagline-2e8aed6d-0835-4f44-b092-4371114e603c-logo-path-0"  >
<path style="stroke: none; stroke-width: 0; stroke-dasharray: none; stroke-linecap: butt; stroke-dashoffset: 0; stroke-linejoin: miter; stroke-miterlimit: 4; fill: rgb(14,77,129); fill-rule: nonzero; opacity: 1;"  paint-order="stroke"  transform=" translate(-159.36799100077135, 11.85)" d="M 5.34 0 L 1.53 0 Q 1.36 0 1.36 -0.17 L 1.36 -0.17 L 1.43 -23.53 Q 1.43 -23.66 1.56 -23.66 L 1.56 -23.66 L 12.44 -23.66 Q 12.61 -23.66 12.61 -23.53 L 12.61 -23.53 L 12.61 -19.69 Q 12.61 -19.55 12.48 -19.55 L 12.48 -19.55 L 5.51 -19.55 L 5.51 -14.28 L 12.48 -14.28 Q 12.61 -14.28 12.61 -14.11 L 12.61 -14.11 L 12.65 -10.27 Q 12.65 -10.13 12.48 -10.13 L 12.48 -10.13 L 5.51 -10.13 L 5.51 -0.17 Q 5.51 0 5.34 0 L 5.34 0 Z M 20.74 0.34 L 20.74 0.34 Q 18.9 0.34 17.39 -0.6 Q 15.88 -1.53 14.96 -3.08 Q 14.04 -4.62 14.04 -6.49 L 14.04 -6.49 L 14.08 -17.27 Q 14.08 -19.14 14.98 -20.67 Q 15.88 -22.2 17.41 -23.12 Q 18.94 -24.04 20.74 -24.04 L 20.74 -24.04 Q 22.58 -24.04 24.07 -23.12 Q 25.57 -22.2 26.47 -20.67 Q 27.37 -19.14 27.37 -17.27 L 27.37 -17.27 L 27.4 -6.49 Q 27.4 -4.62 26.5 -3.08 Q 25.6 -1.53 24.09 -0.6 Q 22.58 0.34 20.74 0.34 Z M 20.74 -3.77 L 20.74 -3.77 Q 21.76 -3.77 22.53 -4.61 Q 23.29 -5.44 23.29 -6.49 L 23.29 -6.49 L 23.26 -17.27 Q 23.26 -18.39 22.54 -19.18 Q 21.83 -19.96 20.74 -19.96 L 20.74 -19.96 Q 19.69 -19.96 18.94 -19.19 Q 18.19 -18.43 18.19 -17.27 L 18.19 -17.27 L 18.19 -6.49 Q 18.19 -5.37 18.94 -4.57 Q 19.69 -3.77 20.74 -3.77 Z M 33.97 0 L 30.12 0 Q 29.99 0 29.99 -0.17 L 29.99 -0.17 L 30.06 -23.53 Q 30.06 -23.66 30.19 -23.66 L 30.19 -23.66 L 37.06 -23.66 Q 38.9 -23.66 40.44 -22.76 Q 41.99 -21.86 42.91 -20.35 Q 43.83 -18.84 43.83 -16.93 L 43.83 -16.93 Q 43.83 -15.67 43.45 -14.67 Q 43.08 -13.67 42.57 -12.97 Q 42.06 -12.27 41.65 -11.93 L 41.65 -11.93 Q 43.49 -9.89 43.49 -7.14 L 43.49 -7.14 L 43.52 -0.17 Q 43.52 0 43.35 0 L 43.35 0 L 39.51 0 Q 39.37 0 39.37 -0.1 L 39.37 -0.1 L 39.37 -7.14 Q 39.37 -8.36 38.51 -9.27 Q 37.64 -10.17 36.38 -10.17 L 36.38 -10.17 L 34.14 -10.17 L 34.1 -0.17 Q 34.1 0 33.97 0 L 33.97 0 Z M 34.14 -19.58 L 34.14 -14.25 L 37.06 -14.25 Q 38.11 -14.25 38.93 -15.03 Q 39.75 -15.81 39.75 -16.93 L 39.75 -16.93 Q 39.75 -18.02 38.95 -18.8 Q 38.15 -19.58 37.06 -19.58 L 37.06 -19.58 L 34.14 -19.58 Z M 58.65 0 L 54.81 0 Q 54.67 0 54.67 -0.17 L 54.67 -0.17 L 54.67 -19.55 L 50.25 -19.55 Q 50.08 -19.55 50.08 -19.72 L 50.08 -19.72 L 50.12 -23.53 Q 50.12 -23.66 50.25 -23.66 L 50.25 -23.66 L 63.17 -23.66 Q 63.34 -23.66 63.34 -23.53 L 63.34 -23.53 L 63.34 -19.72 Q 63.34 -19.55 63.21 -19.55 L 63.21 -19.55 L 58.75 -19.55 L 58.79 -0.17 Q 58.79 0 58.65 0 L 58.65 0 Z M 68.99 0 L 65.14 0 Q 65.01 0 65.01 -0.17 L 65.01 -0.17 L 65.04 -23.53 Q 65.04 -23.66 65.21 -23.66 L 65.21 -23.66 L 68.99 -23.66 Q 69.16 -23.66 69.16 -23.53 L 69.16 -23.53 L 69.12 -14.28 L 74.22 -14.28 L 74.22 -23.53 Q 74.22 -23.66 74.36 -23.66 L 74.36 -23.66 L 78.13 -23.66 Q 78.3 -23.66 78.3 -23.53 L 78.3 -23.53 L 78.37 -0.17 Q 78.37 0 78.2 0 L 78.2 0 L 74.39 0 Q 74.22 0 74.22 -0.17 L 74.22 -0.17 L 74.22 -10.17 L 69.12 -10.17 L 69.12 -0.17 Q 69.12 0 68.99 0 L 68.99 0 Z M 92.28 0 L 81.29 0 Q 81.16 0 81.16 -0.17 L 81.16 -0.17 L 81.19 -23.53 Q 81.19 -23.66 81.33 -23.66 L 81.33 -23.66 L 92.24 -23.66 Q 92.38 -23.66 92.38 -23.49 L 92.38 -23.49 L 92.38 -19.69 Q 92.38 -19.55 92.24 -19.55 L 92.24 -19.55 L 85.27 -19.55 L 85.27 -14.25 L 92.24 -14.25 Q 92.38 -14.25 92.38 -14.11 L 92.38 -14.11 L 92.41 -10.27 Q 92.41 -10.13 92.28 -10.13 L 92.28 -10.13 L 85.27 -10.13 L 85.27 -4.18 L 92.28 -4.18 Q 92.41 -4.18 92.41 -4.01 L 92.41 -4.01 L 92.41 -0.14 Q 92.41 0 92.28 0 L 92.28 0 Z M 104.45 0 L 100.61 0 Q 100.47 0 100.47 -0.17 L 100.47 -0.17 L 100.54 -23.53 Q 100.54 -23.66 100.67 -23.66 L 100.67 -23.66 L 104.82 -23.66 Q 104.96 -23.66 105.06 -23.53 L 105.06 -23.53 L 108.15 -19.04 L 111.25 -23.53 Q 111.35 -23.66 111.49 -23.66 L 111.49 -23.66 L 115.67 -23.66 Q 115.8 -23.66 115.8 -23.53 L 115.8 -23.53 L 115.87 -0.17 Q 115.87 0 115.74 0 L 115.74 0 L 111.89 0 Q 111.76 0 111.76 -0.17 L 111.76 -0.17 L 111.72 -17.51 L 108.15 -12.34 L 104.62 -17.51 L 104.58 -0.17 Q 104.58 0 104.45 0 L 104.45 0 Z M 117.57 -0.17 L 117.57 -0.17 L 121.79 -23.53 Q 121.82 -23.66 121.96 -23.66 L 121.96 -23.66 L 126.89 -23.66 Q 127.02 -23.66 127.06 -23.53 L 127.06 -23.53 L 131.1 -0.17 Q 131.14 0 130.97 0 L 130.97 0 L 127.19 0 Q 127.06 0 127.02 -0.17 L 127.02 -0.17 L 126.65 -2.65 L 122.03 -2.65 L 121.65 -0.17 Q 121.62 0 121.48 0 L 121.48 0 L 117.71 0 Q 117.57 0 117.57 -0.17 Z M 124.24 -15.84 L 122.71 -6.29 L 125.97 -6.29 L 124.58 -15.84 L 124.37 -17.1 L 124.24 -15.84 Z M 138.79 0.34 L 138.79 0.34 Q 136.92 0.34 135.41 -0.6 Q 133.89 -1.53 133.01 -3.09 Q 132.12 -4.66 132.12 -6.6 L 132.12 -6.6 L 132.16 -17.2 Q 132.16 -19.07 133.03 -20.62 Q 133.89 -22.17 135.41 -23.1 Q 136.92 -24.04 138.79 -24.04 L 138.79 -24.04 Q 140.66 -24.04 142.15 -23.12 Q 143.65 -22.2 144.53 -20.66 Q 145.42 -19.11 145.42 -17.2 L 145.42 -17.2 L 145.42 -15.64 Q 145.42 -15.5 145.28 -15.5 L 145.28 -15.5 L 141.47 -15.5 Q 141.34 -15.5 141.34 -15.64 L 141.34 -15.64 L 141.34 -17.2 Q 141.34 -18.33 140.61 -19.14 Q 139.88 -19.96 138.79 -19.96 L 138.79 -19.96 Q 137.56 -19.96 136.92 -19.13 Q 136.27 -18.29 136.27 -17.2 L 136.27 -17.2 L 136.27 -6.6 Q 136.27 -5.34 137 -4.56 Q 137.73 -3.77 138.79 -3.77 L 138.79 -3.77 Q 139.88 -3.77 140.61 -4.64 Q 141.34 -5.51 141.34 -6.6 L 141.34 -6.6 L 141.34 -8.16 Q 141.34 -8.3 141.47 -8.3 L 141.47 -8.3 L 145.32 -8.3 Q 145.45 -8.3 145.45 -8.16 L 145.45 -8.16 L 145.45 -6.6 Q 145.45 -4.66 144.55 -3.09 Q 143.65 -1.53 142.15 -0.6 Q 140.66 0.34 138.79 0.34 Z M 151.91 0 L 148.07 0 Q 147.93 0 147.93 -0.17 L 147.93 -0.17 L 147.97 -23.53 Q 147.97 -23.66 148.14 -23.66 L 148.14 -23.66 L 151.91 -23.66 Q 152.08 -23.66 152.08 -23.53 L 152.08 -23.53 L 152.05 -14.28 L 157.15 -14.28 L 157.15 -23.53 Q 157.15 -23.66 157.28 -23.66 L 157.28 -23.66 L 161.06 -23.66 Q 161.23 -23.66 161.23 -23.53 L 161.23 -23.53 L 161.3 -0.17 Q 161.3 0 161.13 0 L 161.13 0 L 157.32 0 Q 157.15 0 157.15 -0.17 L 157.15 -0.17 L 157.15 -10.17 L 152.05 -10.17 L 152.05 -0.17 Q 152.05 0 151.91 0 L 151.91 0 Z M 168.1 0 L 164.25 0 Q 164.08 0 164.08 -0.17 L 164.08 -0.17 L 164.12 -23.53 Q 164.12 -23.66 164.25 -23.66 L 164.25 -23.66 L 168.06 -23.66 Q 168.2 -23.66 168.2 -23.53 L 168.2 -23.53 L 168.23 -0.17 Q 168.23 0 168.1 0 L 168.1 0 Z M 174.93 0 L 171.53 0 Q 171.26 0 171.26 -0.24 L 171.26 -0.24 L 171.22 -23.39 Q 171.22 -23.66 171.5 -23.66 L 171.5 -23.66 L 174.56 -23.66 L 180.3 -10.27 L 180.13 -23.39 Q 180.13 -23.66 180.44 -23.66 L 180.44 -23.66 L 183.8 -23.66 Q 184.01 -23.66 184.01 -23.39 L 184.01 -23.39 L 184.04 -0.2 Q 184.04 0 183.87 0 L 183.87 0 L 180.88 0 L 175 -12.51 L 175.24 -0.27 Q 175.24 0 174.93 0 L 174.93 0 Z M 198.12 0 L 187.14 0 Q 187 0 187 -0.17 L 187 -0.17 L 187.03 -23.53 Q 187.03 -23.66 187.17 -23.66 L 187.17 -23.66 L 198.08 -23.66 Q 198.22 -23.66 198.22 -23.49 L 198.22 -23.49 L 198.22 -19.69 Q 198.22 -19.55 198.08 -19.55 L 198.08 -19.55 L 191.11 -19.55 L 191.11 -14.25 L 198.08 -14.25 Q 198.22 -14.25 198.22 -14.11 L 198.22 -14.11 L 198.25 -10.27 Q 198.25 -10.13 198.12 -10.13 L 198.12 -10.13 L 191.11 -10.13 L 191.11 -4.18 L 198.12 -4.18 Q 198.25 -4.18 198.25 -4.01 L 198.25 -4.01 L 198.25 -0.14 Q 198.25 0 198.12 0 L 198.12 0 Z M 222.46 0 L 211.48 0 Q 211.34 0 211.34 -0.17 L 211.34 -0.17 L 211.38 -23.53 Q 211.38 -23.66 211.51 -23.66 L 211.51 -23.66 L 222.43 -23.66 Q 222.56 -23.66 222.56 -23.49 L 222.56 -23.49 L 222.56 -19.69 Q 222.56 -19.55 222.43 -19.55 L 222.43 -19.55 L 215.46 -19.55 L 215.46 -14.25 L 222.43 -14.25 Q 222.56 -14.25 222.56 -14.11 L 222.56 -14.11 L 222.6 -10.27 Q 222.6 -10.13 222.46 -10.13 L 222.46 -10.13 L 215.46 -10.13 L 215.46 -4.18 L 222.46 -4.18 Q 222.6 -4.18 222.6 -4.01 L 222.6 -4.01 L 222.6 -0.14 Q 222.6 0 222.46 0 L 222.46 0 Z M 231.34 0.34 L 231.34 0.34 Q 229.47 0.34 227.95 -0.6 Q 226.44 -1.53 225.56 -3.09 Q 224.67 -4.66 224.67 -6.6 L 224.67 -6.6 L 224.71 -17.2 Q 224.71 -19.07 225.57 -20.62 Q 226.44 -22.17 227.95 -23.1 Q 229.47 -24.04 231.34 -24.04 L 231.34 -24.04 Q 233.21 -24.04 234.7 -23.12 Q 236.2 -22.2 237.08 -20.66 Q 237.97 -19.11 237.97 -17.2 L 237.97 -17.2 L 237.97 -15.64 Q 237.97 -15.5 237.83 -15.5 L 237.83 -15.5 L 234.02 -15.5 Q 233.89 -15.5 233.89 -15.64 L 233.89 -15.64 L 233.89 -17.2 Q 233.89 -18.33 233.16 -19.14 Q 232.42 -19.96 231.34 -19.96 L 231.34 -19.96 Q 230.11 -19.96 229.47 -19.13 Q 228.82 -18.29 228.82 -17.2 L 228.82 -17.2 L 228.82 -6.6 Q 228.82 -5.34 229.55 -4.56 Q 230.28 -3.77 231.34 -3.77 L 231.34 -3.77 Q 232.42 -3.77 233.16 -4.64 Q 233.89 -5.51 233.89 -6.6 L 233.89 -6.6 L 233.89 -8.16 Q 233.89 -8.3 234.02 -8.3 L 234.02 -8.3 L 237.86 -8.3 Q 238 -8.3 238 -8.16 L 238 -8.16 L 238 -6.6 Q 238 -4.66 237.1 -3.09 Q 236.2 -1.53 234.7 -0.6 Q 233.21 0.34 231.34 0.34 Z M 246.77 0.34 L 246.77 0.34 Q 244.94 0.34 243.42 -0.6 Q 241.91 -1.53 240.99 -3.08 Q 240.07 -4.62 240.07 -6.49 L 240.07 -6.49 L 240.11 -17.27 Q 240.11 -19.14 241.01 -20.67 Q 241.91 -22.2 243.44 -23.12 Q 244.97 -24.04 246.77 -24.04 L 246.77 -24.04 Q 248.61 -24.04 250.1 -23.12 Q 251.6 -22.2 252.5 -20.67 Q 253.4 -19.14 253.4 -17.27 L 253.4 -17.27 L 253.44 -6.49 Q 253.44 -4.62 252.54 -3.08 Q 251.63 -1.53 250.12 -0.6 Q 248.61 0.34 246.77 0.34 Z M 246.77 -3.77 L 246.77 -3.77 Q 247.79 -3.77 248.56 -4.61 Q 249.32 -5.44 249.32 -6.49 L 249.32 -6.49 L 249.29 -17.27 Q 249.29 -18.39 248.57 -19.18 Q 247.86 -19.96 246.77 -19.96 L 246.77 -19.96 Q 245.72 -19.96 244.97 -19.19 Q 244.22 -18.43 244.22 -17.27 L 244.22 -17.27 L 244.22 -6.49 Q 244.22 -5.37 244.97 -4.57 Q 245.72 -3.77 246.77 -3.77 Z M 259.73 0 L 256.33 0 Q 256.05 0 256.05 -0.24 L 256.05 -0.24 L 256.02 -23.39 Q 256.02 -23.66 256.29 -23.66 L 256.29 -23.66 L 259.35 -23.66 L 265.1 -10.27 L 264.93 -23.39 Q 264.93 -23.66 265.23 -23.66 L 265.23 -23.66 L 268.6 -23.66 Q 268.8 -23.66 268.8 -23.39 L 268.8 -23.39 L 268.84 -0.2 Q 268.84 0 268.67 0 L 268.67 0 L 265.68 0 L 259.79 -12.51 L 260.03 -0.27 Q 260.03 0 259.73 0 L 259.73 0 Z M 278.09 0.34 L 278.09 0.34 Q 276.25 0.34 274.74 -0.6 Q 273.22 -1.53 272.31 -3.08 Q 271.39 -4.62 271.39 -6.49 L 271.39 -6.49 L 271.42 -17.27 Q 271.42 -19.14 272.32 -20.67 Q 273.22 -22.2 274.75 -23.12 Q 276.28 -24.04 278.09 -24.04 L 278.09 -24.04 Q 279.92 -24.04 281.42 -23.12 Q 282.91 -22.2 283.82 -20.67 Q 284.72 -19.14 284.72 -17.27 L 284.72 -17.27 L 284.75 -6.49 Q 284.75 -4.62 283.85 -3.08 Q 282.95 -1.53 281.44 -0.6 Q 279.92 0.34 278.09 0.34 Z M 278.09 -3.77 L 278.09 -3.77 Q 279.11 -3.77 279.87 -4.61 Q 280.64 -5.44 280.64 -6.49 L 280.64 -6.49 L 280.6 -17.27 Q 280.6 -18.39 279.89 -19.18 Q 279.17 -19.96 278.09 -19.96 L 278.09 -19.96 Q 277.03 -19.96 276.28 -19.19 Q 275.54 -18.43 275.54 -17.27 L 275.54 -17.27 L 275.54 -6.49 Q 275.54 -5.37 276.28 -4.57 Q 277.03 -3.77 278.09 -3.77 Z M 291.31 0 L 287.47 0 Q 287.33 0 287.33 -0.17 L 287.33 -0.17 L 287.4 -23.53 Q 287.4 -23.66 287.54 -23.66 L 287.54 -23.66 L 291.69 -23.66 Q 291.82 -23.66 291.92 -23.53 L 291.92 -23.53 L 295.02 -19.04 L 298.11 -23.53 Q 298.21 -23.66 298.35 -23.66 L 298.35 -23.66 L 302.53 -23.66 Q 302.67 -23.66 302.67 -23.53 L 302.67 -23.53 L 302.74 -0.17 Q 302.74 0 302.6 0 L 302.6 0 L 298.76 0 Q 298.62 0 298.62 -0.17 L 298.62 -0.17 L 298.59 -17.51 L 295.02 -12.34 L 291.48 -17.51 L 291.45 -0.17 Q 291.45 0 291.31 0 L 291.31 0 Z M 312.66 0 L 308.75 0 Q 308.65 0 308.65 -0.14 L 308.65 -0.14 L 308.69 -9.79 L 304.13 -23.53 Q 304.1 -23.66 304.23 -23.66 L 304.23 -23.66 L 308.01 -23.66 Q 308.18 -23.66 308.21 -23.53 L 308.21 -23.53 L 310.73 -14.38 L 313.28 -23.53 Q 313.31 -23.66 313.45 -23.66 L 313.45 -23.66 L 317.25 -23.66 Q 317.39 -23.66 317.36 -23.53 L 317.36 -23.53 L 312.77 -9.93 L 312.8 -0.14 Q 312.8 0 312.66 0 L 312.66 0 Z" stroke-linecap="round" />
</g>
</g>
</g>
<g transform="matrix(0.7457918552036199 0 0 0.7457918552036199 578.6561584770527 312.3235294117647)" id="maker-logo"  >
<g style=""  paint-order="stroke"   >
		<g transform="matrix(1 0 0 1 0 -52.621721318032)" id="logo-logo"  >
<g style=""  paint-order="stroke"   >
		<g transform="matrix(0.6379188000137487 0 0 0.6379188000137487 43.33627131928432 59.95731500895826)"  >
<linearGradient id="SVGID_155859" gradientUnits="userSpaceOnUse" gradientTransform="matrix(1 0 0 1 0 -578)"  x1="313.0588379" y1="910.043457" x2="313.0588379" y2="984.9311523">
<stop offset="0%" style="stop-color:rgb(140,196,242);stop-opacity: 1"/>
<stop offset="50%" style="stop-color:rgb(23,124,207);stop-opacity: 1"/>
<stop offset="100%" style="stop-color:rgb(14,74,124);stop-opacity: 1"/>
</linearGradient>
<path style="stroke: none; stroke-width: 1; stroke-dasharray: none; stroke-linecap: butt; stroke-dashoffset: 0; stroke-linejoin: miter; stroke-miterlimit: 4; fill: url(#SVGID_155859); fill-rule: nonzero; opacity: 1;"  paint-order="stroke"  transform=" translate(-313.05883785000003, -348.58978270000006)" d="M 305.90979 370.9213867 C 328.7274475 366.22219850000005 343.54168699999997 375.6205444 343.54168699999997 375.6205444 L 344.9990539 370.3135376 L 285.1629638 321.55902100000003 L 281.1186218 325.60336300000006 L 281.1186218 375.6205444000001 C 281.1186218 375.6205444 283.0920715 375.6205444 305.90979 370.9213867 z" stroke-linecap="round" />
</g>
		<g transform="matrix(0.6379188000137487 0 0 0.6379188000137487 -43.336268475734016 -59.95731988903708)"  >
<linearGradient id="SVGID_155860" gradientUnits="userSpaceOnUse" gradientTransform="matrix(1 0 0 1 0 -578)"  x1="177.1911621" y1="702.4400635" x2="177.1911621" y2="765.2144775">
<stop offset="0%" style="stop-color:rgb(140,196,242);stop-opacity: 1"/>
<stop offset="50%" style="stop-color:rgb(23,124,207);stop-opacity: 1"/>
<stop offset="100%" style="stop-color:rgb(14,74,124);stop-opacity: 1"/>
</linearGradient>
<path style="stroke: none; stroke-width: 1; stroke-dasharray: none; stroke-linecap: butt; stroke-dashoffset: 0; stroke-linejoin: miter; stroke-miterlimit: 4; fill: url(#SVGID_155860); fill-rule: nonzero; opacity: 1;"  paint-order="stroke"  transform=" translate(-177.19116975, -160.61188505)" d="M 184.34021 138.2802582 C 161.52255250000002 142.9794617 146.7083283 133.581131 146.7083283 133.581131 L 145.2509461 138.8881378 L 205.0870514 187.6426391 L 209.1313934 183.5982971 L 209.1313934 133.581131 C 209.1313934 133.581131 207.1579132 133.581131 184.34021 138.2802582 z" stroke-linecap="round" />
</g>
		<g transform="matrix(0.6379188000137487 0 0 0.6379188000137487 7.52623918743e-9 -2.842171e-14)"  >
<linearGradient id="SVGID_155861" gradientUnits="userSpaceOnUse" gradientTransform="matrix(-1 0 0 -1 -656 -78.0216675)"  x1="-901.125" y1="-211.6027985" x2="-901.125" y2="-453.6422119">
<stop offset="0%" style="stop-color:rgb(140,196,242);stop-opacity: 1"/>
<stop offset="50%" style="stop-color:rgb(23,124,207);stop-opacity: 1"/>
<stop offset="100%" style="stop-color:rgb(14,74,124);stop-opacity: 1"/>
</linearGradient>
<path style="stroke: none; stroke-width: 1; stroke-dasharray: none; stroke-linecap: butt; stroke-dashoffset: 0; stroke-linejoin: miter; stroke-miterlimit: 4; fill: url(#SVGID_155861); fill-rule: nonzero; opacity: 1;"  paint-order="stroke"  transform=" translate(-245.1250015830267, -254.6008377)" d="M 156.9172668 226.109848 L 343.541687 375.6205444 L 343.54174800000004 375.6204528 C 366.2737121 347.2502746 361.70300290000006 305.8237609 333.33273310000004 283.0917968 L 146.7083282 133.581131 L 146.70825190000002 133.581192 C 123.9762955 161.9513855 128.5469971 203.3778839 156.9172668 226.109848 z" stroke-linecap="round" />
</g>
		<g transform="matrix(0.6379188000137487 0 0 0.6379188000137487 -43.336268475734016 59.95731500895826)"  >
<linearGradient id="SVGID_155862" gradientUnits="userSpaceOnUse" gradientTransform="matrix(1 0 0 1 0 -578)"  x1="177.1911621" y1="910.043457" x2="177.1911621" y2="984.9311523">
<stop offset="0%" style="stop-color:rgb(140,196,242);stop-opacity: 1"/>
<stop offset="50%" style="stop-color:rgb(23,124,207);stop-opacity: 1"/>
<stop offset="100%" style="stop-color:rgb(14,74,124);stop-opacity: 1"/>
</linearGradient>
<path style="stroke: none; stroke-width: 1; stroke-dasharray: none; stroke-linecap: butt; stroke-dashoffset: 0; stroke-linejoin: miter; stroke-miterlimit: 4; fill: url(#SVGID_155862); fill-rule: nonzero; opacity: 1;"  paint-order="stroke"  transform=" translate(-177.19116975, -348.58978270000006)" d="M 184.34021 370.9213867 C 161.52255250000002 366.22219850000005 146.7083283 375.6205444 146.7083283 375.6205444 L 145.2509461 370.3135376 L 205.0870514 321.55902100000003 L 209.1313934 325.60336300000006 L 209.1313934 375.6205444000001 C 209.1313934 375.6205444 207.1579132 375.6205444 184.34021 370.9213867 z" stroke-linecap="round" />
</g>
		<g transform="matrix(0.6379188000137487 0 0 0.6379188000137487 43.33627131928432 -59.95731988903708)"  >
<linearGradient id="SVGID_155863" gradientUnits="userSpaceOnUse" gradientTransform="matrix(1 0 0 1 0 -578)"  x1="313.0588379" y1="702.4400635" x2="313.0588379" y2="765.2144775">
<stop offset="0%" style="stop-color:rgb(140,196,242);stop-opacity: 1"/>
<stop offset="50%" style="stop-color:rgb(23,124,207);stop-opacity: 1"/>
<stop offset="100%" style="stop-color:rgb(14,74,124);stop-opacity: 1"/>
</linearGradient>
<path style="stroke: none; stroke-width: 1; stroke-dasharray: none; stroke-linecap: butt; stroke-dashoffset: 0; stroke-linejoin: miter; stroke-miterlimit: 4; fill: url(#SVGID_155863); fill-rule: nonzero; opacity: 1;"  paint-order="stroke"  transform=" translate(-313.05883785000003, -160.61188505)" d="M 305.90979 138.2802582 C 328.7274475 142.9794617 343.54168699999997 133.581131 343.54168699999997 133.581131 L 344.9990539 138.8881378 L 285.1629638 187.6426391 L 281.1186218 183.5982971 L 281.1186218 133.581131 C 281.1186218 133.581131 283.0920715 133.581131 305.90979 138.2802582 z" stroke-linecap="round" />
</g>
		<g transform="matrix(0.6379188000137487 0 0 0.6379188000137487 -17.699887243658054 -13.885762368097431)"  >
<polygon style="stroke: none; stroke-width: 1; stroke-dasharray: none; stroke-linecap: butt; stroke-dashoffset: 0; stroke-linejoin: miter; stroke-miterlimit: 4; fill: rgb(18,96,161); fill-rule: nonzero; opacity: 1;"  paint-order="stroke"  points="27.74629974999999,-20.407737700000013 20.046852149999978,-26.5759659 -32.47473905000001,15.697303799999986 -24.898033150000003,21.7673111 -19.590843150000012,26.57596589999997 32.47473904999998,-15.679298399999993 " />
</g>
		<g transform="matrix(0.6379188000137487 0 0 0.6379188000137487 17.48273238477475 13.475212149685632)"  >
<polygon style="stroke: none; stroke-width: 1; stroke-dasharray: none; stroke-linecap: butt; stroke-dashoffset: 0; stroke-linejoin: miter; stroke-miterlimit: 4; fill: rgb(18,96,161); fill-rule: nonzero; opacity: 1;"  paint-order="stroke"  points="25.23842615000001,-21.12368774999996 19.191703749999988,-27.170410149999952 -32.876518250000004,15.359313950000058 -27.405891450000013,21.05130005000001 -19.76781465000002,27.17041015000001 32.876518250000004,-15.004638649999947 " />
</g>
		<g transform="matrix(0.6379188000137487 0 0 0.6379188000137487 0 -2.842171e-14)"  >
<linearGradient id="SVGID_155864" gradientUnits="userSpaceOnUse" gradientTransform="matrix(1 0 0 -1 60.769516 -78.0216675)"  x1="184.355484" y1="-211.6027985" x2="184.355484" y2="-453.6422119">
<stop offset="0%" style="stop-color:rgb(140,196,242);stop-opacity: 1"/>
<stop offset="50%" style="stop-color:rgb(23,124,207);stop-opacity: 1"/>
<stop offset="100%" style="stop-color:rgb(14,74,124);stop-opacity: 1"/>
</linearGradient>
<path style="stroke: none; stroke-width: 1; stroke-dasharray: none; stroke-linecap: butt; stroke-dashoffset: 0; stroke-linejoin: miter; stroke-miterlimit: 4; fill: url(#SVGID_155864); fill-rule: nonzero; opacity: 1;"  paint-order="stroke"  transform=" translate(-245.12500157122867, -254.6008377)" d="M 333.3327332 226.109848 L 146.7083282 375.6205444 L 146.70825190000002 375.6204528 C 123.97629540000003 347.2502746 128.54699700000003 305.8237609 156.91726680000002 283.0917968 L 343.541687 133.581131 L 343.54174800000004 133.581192 C 366.2737122 161.9513855 361.7030029 203.3778839 333.3327332 226.109848 z" stroke-linecap="round" />
</g>
</g>
</g>
		<g transform="matrix(1 0 0 1 -1.7008168418455796 72.06722894556242)" id="text-logo"  >
<g style=""  paint-order="stroke"   >
		<g transform="matrix(1 0 0 1 0 0)" id="text-logo-path-0"  >
<path style="stroke: none; stroke-width: 0; stroke-dasharray: none; stroke-linecap: butt; stroke-dashoffset: 0; stroke-linejoin: miter; stroke-miterlimit: 4; fill: rgb(14,77,129); fill-rule: nonzero; opacity: 1;"  paint-order="stroke"  transform=" translate(-166.925, 15.75)" d="M 23.85 0 L 32.85 0 L 23.18 -16.65 L 31.95 -31.5 L 22.95 -31.5 L 17.46 -21.73 L 11.7 -31.5 L 3.15 -31.5 L 11.92 -16.65 L 2.25 0 L 11.25 0 L 17.55 -11.38 L 23.85 0 Z M 44.55 -13.5 L 44.55 -7.2 L 61.2 -7.2 L 61.2 0 L 68.85 0 L 68.85 -7.2 L 72 -7.2 L 72 -13.5 L 68.85 -13.5 L 68.85 -31.5 L 58.01 -31.5 L 44.55 -13.5 Z M 52.2 -13.5 L 61.2 -25.56 L 61.2 -13.5 L 52.2 -13.5 Z M 99.05 0.45 C 109.35 0.45 114.3 -4.5 114.3 -15.79 C 114.3 -26.77 109.67 -31.95 99.05 -31.95 C 88.65 -31.95 83.7 -27 83.7 -15.79 C 83.7 -4.81 88.38 0.45 99.05 0.45 Z M 91.35 -15.79 C 91.35 -22.5 93.65 -25.65 99.05 -25.65 C 104.22 -25.65 106.65 -22.63 106.65 -15.79 C 106.65 -9.09 104.31 -5.85 99.05 -5.85 C 93.83 -5.85 91.35 -8.91 91.35 -15.79 Z M 126.05 -6.3 L 126 0 L 153.5 0 L 153.5 -6.3 L 133.74 -6.3 C 133.92 -9.86 135.32 -11.25 139.32 -11.25 L 142.7 -11.25 C 150.66 -11.25 153.5 -14.22 153.5 -20.34 L 153.5 -21.69 C 153.5 -26.37 152.19 -29.2 148.01 -30.78 C 145.98 -31.54 143.01 -31.95 139.28 -31.95 C 130.5 -31.95 126 -29.16 126 -20.88 L 133.7 -20.88 C 133.7 -23.71 134.64 -24.97 136.17 -25.38 C 136.94 -25.56 137.97 -25.65 139.28 -25.65 C 142.56 -25.65 144.59 -25.33 145.31 -24.21 C 145.62 -23.71 145.8 -22.95 145.8 -21.91 L 145.8 -20.56 C 145.8 -18.59 144.95 -17.86 143.33 -17.68 C 142.52 -17.59 141.17 -17.55 139.32 -17.55 L 136.8 -17.55 C 129.83 -17.55 126.36 -14.13 126.05 -6.3 Z M 181.39 0 L 207.04 0 L 207.04 -6.3 L 189.04 -6.3 L 189.04 -31.5 L 181.39 -31.5 L 181.39 0 Z M 243.04 0 L 250.69 0 L 238.77 -31.5 L 230.67 -31.5 L 218.74 0 L 226.39 0 L 228.6 -5.85 L 240.84 -5.85 L 243.04 0 Z M 230.98 -12.15 L 234.72 -22 L 238.45 -12.15 L 230.98 -12.15 Z M 262.39 0 L 281.61 0 C 288.27 0 291.51 -3.06 291.51 -9.9 C 291.51 -14.31 290.07 -17.23 287.23 -18.68 C 288.58 -20.02 289.26 -21.82 289.26 -24.07 C 289.26 -28.62 286.29 -31.5 281.83 -31.5 L 262.39 -31.5 L 262.39 0 Z M 270.04 -6.3 L 270.04 -13.5 L 281.61 -13.5 C 283.19 -13.5 283.86 -12.42 283.86 -9.9 C 283.86 -7.51 283.19 -6.3 281.61 -6.3 L 270.04 -6.3 Z M 270.04 -19.8 L 270.04 -25.2 L 280.13 -25.2 C 281.02 -25.2 281.61 -24.07 281.61 -22.5 C 281.61 -20.88 280.98 -19.8 280.13 -19.8 L 270.04 -19.8 Z M 317.38 0.45 C 324.9 0.45 328.86 -1.17 330.44 -4.09 C 331.2 -5.54 331.6 -7.47 331.6 -9.81 C 331.6 -15.93 328.77 -18.9 320.8 -18.9 L 317.38 -18.9 C 314.23 -18.9 312.44 -18.9 311.53 -19.8 C 311.13 -20.2 310.9 -20.93 310.9 -21.91 C 310.9 -23.94 311.44 -24.88 313.29 -25.33 C 314.23 -25.56 315.58 -25.65 317.43 -25.65 C 320.08 -25.65 321.44 -25.43 322.33 -24.03 C 322.78 -23.36 323.01 -22.27 323.01 -20.88 L 330.7 -20.88 C 330.7 -29.16 326.2 -31.95 317.43 -31.95 C 309.91 -31.95 306 -30.33 304.42 -27.4 C 303.61 -25.96 303.21 -24.03 303.21 -21.69 C 303.21 -15.57 306.04 -12.6 314.01 -12.6 L 317.38 -12.6 C 320.4 -12.6 322.33 -12.42 323.28 -11.52 C 323.69 -11.07 323.91 -10.44 323.91 -9.58 C 323.91 -7.56 323.41 -6.66 321.57 -6.21 C 320.58 -5.94 319.23 -5.85 317.38 -5.85 C 314.14 -5.85 312.57 -6.08 311.63 -7.47 C 311.13 -8.14 310.9 -9.18 310.9 -10.62 L 303.21 -10.62 C 303.21 -4.91 305.37 -1.89 309.55 -0.54 C 311.63 0.14 314.19 0.45 317.38 0.45 Z" stroke-linecap="round" />
</g>
</g>
</g>
		<g transform="matrix(1 0 0 1 2.912526411227418 114.47253947163459)" id="tagline-ccfd13b2-9b98-45f4-96f2-4a4df330cbc0-logo"  >
<g style=""  paint-order="stroke"   >
		<g transform="matrix(1 0 0 1 0 0)" id="tagline-ccfd13b2-9b98-45f4-96f2-4a4df330cbc0-logo-path-0"  >
<path style="stroke: none; stroke-width: 0; stroke-dasharray: none; stroke-linecap: butt; stroke-dashoffset: 0; stroke-linejoin: miter; stroke-miterlimit: 4; fill: rgb(14,77,129); fill-rule: nonzero; opacity: 1;"  paint-order="stroke"  transform=" translate(-223.25, 3.8499999999999996)" d="M 1.68 0 L 1.68 -5.05 L 3.88 0 L 5.42 0 L 7.62 -5.05 L 7.62 0 L 8.94 0 L 8.94 -7.7 L 7.35 -7.7 L 4.65 -1.52 L 1.96 -7.7 L 0.36 -7.7 L 0.36 0 Z M 16.27 0 L 16.27 -7.7 L 14.95 -7.7 L 14.95 0 Z M 29.39 -1.19 L 28.29 -1.91 C 27.98 -1.44 27.35 -1.21 26.14 -1.21 C 24.12 -1.21 23.59 -1.75 23.59 -3.85 C 23.59 -5.96 24.13 -6.49 26.14 -6.49 C 27.15 -6.49 27.75 -6.34 28.1 -6.02 L 28.98 -6.98 C 28.34 -7.59 27.39 -7.81 26.14 -7.81 C 23.41 -7.81 22.27 -6.72 22.27 -3.85 C 22.27 -1.02 23.38 0.11 26.14 0.11 C 27.66 0.11 28.77 -0.23 29.39 -1.19 Z M 36.72 0 L 36.72 -2.64 L 38.65 -2.64 L 40.14 0 L 41.66 0 L 40.09 -2.78 C 41.05 -3.08 41.57 -3.87 41.57 -5.17 C 41.57 -6.81 40.75 -7.7 39.04 -7.7 L 35.4 -7.7 L 35.4 0 Z M 36.72 -3.96 L 36.72 -6.38 L 39.04 -6.38 C 39.98 -6.38 40.25 -6.1 40.25 -5.17 C 40.25 -4.22 39.97 -3.96 39.04 -3.96 Z M 51.52 -1.21 C 49.51 -1.21 48.98 -1.75 48.98 -3.85 C 48.98 -5.96 49.52 -6.49 51.52 -6.49 C 53.53 -6.49 54.05 -5.95 54.05 -3.85 C 54.05 -1.74 53.52 -1.21 51.52 -1.21 Z M 51.52 0.11 C 54.24 0.11 55.37 -0.98 55.37 -3.85 C 55.37 -6.69 54.27 -7.81 51.52 -7.81 C 48.8 -7.81 47.66 -6.72 47.66 -3.85 C 47.66 -1.02 48.76 0.11 51.52 0.11 Z M 62.7 0 L 62.7 -2.64 L 65.02 -2.64 C 66.66 -2.64 67.55 -3.45 67.55 -5.17 C 67.55 -6.81 66.74 -7.7 65.02 -7.7 L 61.38 -7.7 L 61.38 0 Z M 62.7 -3.96 L 62.7 -6.38 L 65.02 -6.38 C 65.97 -6.38 66.23 -6.1 66.23 -5.17 C 66.23 -4.22 65.96 -3.96 65.02 -3.96 Z M 73.76 0 L 74.35 -1.54 L 77.8 -1.54 L 78.4 0 L 79.81 0 L 76.84 -7.7 L 75.32 -7.7 L 72.35 0 Z M 74.86 -2.86 L 76.08 -6.02 L 77.3 -2.86 Z M 83.61 -7.7 L 86.56 -3.41 L 86.56 0 L 87.88 0 L 87.88 -3.41 L 90.83 -7.7 L 89.22 -7.7 L 87.22 -4.79 L 85.22 -7.7 Z M 98.15 0 L 98.15 -5.05 L 100.35 0 L 101.89 0 L 104.09 -5.05 L 104.09 0 L 105.41 0 L 105.41 -7.7 L 103.82 -7.7 L 101.12 -1.52 L 98.43 -7.7 L 96.83 -7.7 L 96.83 0 Z M 111.42 0 L 117.14 0 L 117.14 -1.32 L 112.74 -1.32 L 112.74 -3.19 L 116.04 -3.19 L 116.04 -4.51 L 112.74 -4.51 L 112.74 -6.38 L 117.14 -6.38 L 117.14 -7.7 L 111.42 -7.7 Z M 124.47 0 L 124.47 -5.86 L 128.4 0 L 130.07 0 L 130.07 -7.7 L 128.75 -7.7 L 128.75 -1.84 L 124.82 -7.7 L 123.14 -7.7 L 123.14 0 Z M 139.82 0 L 139.82 -6.38 L 142.24 -6.38 L 142.24 -7.7 L 136.08 -7.7 L 136.08 -6.38 L 138.5 -6.38 L 138.5 0 Z M 153.33 -5.5 L 154.65 -5.5 C 154.65 -7.15 153.82 -7.81 151.58 -7.81 C 148.91 -7.81 148.25 -6.88 148.25 -5.32 C 148.25 -4.33 148.92 -3.31 150.34 -3.24 L 152.75 -3.15 C 153.44 -3.11 153.58 -2.96 153.58 -2.38 C 153.58 -1.47 153.32 -1.21 151.57 -1.21 C 149.76 -1.21 149.57 -1.39 149.57 -2.38 L 148.25 -2.38 C 148.25 -0.66 148.95 0.11 151.57 0.11 C 154.11 0.11 154.9 -0.73 154.9 -2.38 C 154.9 -3.74 154.12 -4.41 152.81 -4.47 L 150.4 -4.56 C 149.82 -4.59 149.57 -4.93 149.57 -5.32 C 149.57 -6.24 149.81 -6.49 151.58 -6.49 C 153.12 -6.49 153.33 -6.34 153.33 -5.5 Z M 169.71 0 L 169.71 -3.19 L 173.01 -3.19 L 173.01 -4.51 L 169.71 -4.51 L 169.71 -6.38 L 174.11 -6.38 L 174.11 -7.7 L 168.39 -7.7 L 168.39 0 Z M 183.64 -1.21 C 181.63 -1.21 181.1 -1.75 181.1 -3.85 C 181.1 -5.96 181.64 -6.49 183.64 -6.49 C 185.65 -6.49 186.17 -5.95 186.17 -3.85 C 186.17 -1.74 185.64 -1.21 183.64 -1.21 Z M 183.64 0.11 C 186.36 0.11 187.49 -0.98 187.49 -3.85 C 187.49 -6.69 186.39 -7.81 183.64 -7.81 C 180.92 -7.81 179.78 -6.72 179.78 -3.85 C 179.78 -1.02 180.88 0.11 183.64 0.11 Z M 194.82 0 L 194.82 -2.64 L 196.76 -2.64 L 198.24 0 L 199.76 0 L 198.2 -2.78 C 199.15 -3.08 199.67 -3.87 199.67 -5.17 C 199.67 -6.81 198.86 -7.7 197.14 -7.7 L 193.5 -7.7 L 193.5 0 Z M 194.82 -3.96 L 194.82 -6.38 L 197.14 -6.38 C 198.09 -6.38 198.35 -6.1 198.35 -5.17 C 198.35 -4.22 198.08 -3.96 197.14 -3.96 Z M 216.99 0 L 216.99 -6.38 L 219.41 -6.38 L 219.41 -7.7 L 213.25 -7.7 L 213.25 -6.38 L 215.67 -6.38 L 215.67 0 Z M 226.73 0 L 226.73 -3.19 L 231.02 -3.19 L 231.02 0 L 232.34 0 L 232.34 -7.7 L 231.02 -7.7 L 231.02 -4.51 L 226.73 -4.51 L 226.73 -7.7 L 225.41 -7.7 L 225.41 0 Z M 238.35 0 L 244.07 0 L 244.07 -1.32 L 239.67 -1.32 L 239.67 -3.19 L 242.97 -3.19 L 242.97 -4.51 L 239.67 -4.51 L 239.67 -6.38 L 244.07 -6.38 L 244.07 -7.7 L 238.35 -7.7 Z M 258.87 0 L 258.87 -5.05 L 261.07 0 L 262.61 0 L 264.81 -5.05 L 264.81 0 L 266.13 0 L 266.13 -7.7 L 264.54 -7.7 L 261.84 -1.52 L 259.15 -7.7 L 257.55 -7.7 L 257.55 0 Z M 273.55 0 L 274.14 -1.54 L 277.6 -1.54 L 278.19 0 L 279.6 0 L 276.63 -7.7 L 275.11 -7.7 L 272.14 0 Z M 274.65 -2.86 L 275.87 -6.02 L 277.09 -2.86 Z M 292.17 -1.19 L 291.07 -1.91 C 290.76 -1.44 290.12 -1.21 288.91 -1.21 C 286.9 -1.21 286.37 -1.75 286.37 -3.85 C 286.37 -5.96 286.91 -6.49 288.91 -6.49 C 289.93 -6.49 290.53 -6.34 290.88 -6.02 L 291.76 -6.98 C 291.11 -7.59 290.17 -7.81 288.91 -7.81 C 286.19 -7.81 285.05 -6.72 285.05 -3.85 C 285.05 -1.02 286.15 0.11 288.91 0.11 C 290.44 0.11 291.54 -0.23 292.17 -1.19 Z M 299.5 0 L 299.5 -3.19 L 303.79 -3.19 L 303.79 0 L 305.11 0 L 305.11 -7.7 L 303.79 -7.7 L 303.79 -4.51 L 299.5 -4.51 L 299.5 -7.7 L 298.18 -7.7 L 298.18 0 Z M 312.43 0 L 312.43 -7.7 L 311.11 -7.7 L 311.11 0 Z M 319.76 0 L 319.76 -5.86 L 323.7 0 L 325.37 0 L 325.37 -7.7 L 324.05 -7.7 L 324.05 -1.84 L 320.11 -7.7 L 318.44 -7.7 L 318.44 0 Z M 331.37 0 L 337.09 0 L 337.09 -1.32 L 332.69 -1.32 L 332.69 -3.19 L 335.99 -3.19 L 335.99 -4.51 L 332.69 -4.51 L 332.69 -6.38 L 337.09 -6.38 L 337.09 -7.7 L 331.37 -7.7 Z M 350.58 0 L 356.3 0 L 356.3 -1.32 L 351.9 -1.32 L 351.9 -3.19 L 355.2 -3.19 L 355.2 -4.51 L 351.9 -4.51 L 351.9 -6.38 L 356.3 -6.38 L 356.3 -7.7 L 350.58 -7.7 Z M 369.42 -1.19 L 368.32 -1.91 C 368.02 -1.44 367.38 -1.21 366.17 -1.21 C 364.15 -1.21 363.63 -1.75 363.63 -3.85 C 363.63 -5.96 364.17 -6.49 366.17 -6.49 C 367.18 -6.49 367.78 -6.34 368.14 -6.02 L 369.02 -6.98 C 368.37 -7.59 367.42 -7.81 366.17 -7.81 C 363.44 -7.81 362.31 -6.72 362.31 -3.85 C 362.31 -1.02 363.41 0.11 366.17 0.11 C 367.7 0.11 368.8 -0.23 369.42 -1.19 Z M 378.85 -1.21 C 376.84 -1.21 376.31 -1.75 376.31 -3.85 C 376.31 -5.96 376.85 -6.49 378.85 -6.49 C 380.85 -6.49 381.38 -5.95 381.38 -3.85 C 381.38 -1.74 380.84 -1.21 378.85 -1.21 Z M 378.85 0.11 C 381.57 0.11 382.7 -0.98 382.7 -3.85 C 382.7 -6.69 381.6 -7.81 378.85 -7.81 C 376.12 -7.81 374.99 -6.72 374.99 -3.85 C 374.99 -1.02 376.09 0.11 378.85 0.11 Z M 390.03 0 L 390.03 -5.86 L 393.96 0 L 395.64 0 L 395.64 -7.7 L 394.32 -7.7 L 394.32 -1.84 L 390.38 -7.7 L 388.71 -7.7 L 388.71 0 Z M 405.5 -1.21 C 403.49 -1.21 402.96 -1.75 402.96 -3.85 C 402.96 -5.96 403.5 -6.49 405.5 -6.49 C 407.51 -6.49 408.03 -5.95 408.03 -3.85 C 408.03 -1.74 407.49 -1.21 405.5 -1.21 Z M 405.5 0.11 C 408.22 0.11 409.35 -0.98 409.35 -3.85 C 409.35 -6.69 408.25 -7.81 405.5 -7.81 C 402.78 -7.81 401.64 -6.72 401.64 -3.85 C 401.64 -1.02 402.74 0.11 405.5 0.11 Z M 416.68 0 L 416.68 -5.05 L 418.88 0 L 420.42 0 L 422.62 -5.05 L 422.62 0 L 423.94 0 L 423.94 -7.7 L 422.34 -7.7 L 419.65 -1.52 L 416.95 -7.7 L 415.36 -7.7 L 415.36 0 Z M 429.95 -7.7 L 432.89 -3.41 L 432.89 0 L 434.21 0 L 434.21 -3.41 L 437.16 -7.7 L 435.56 -7.7 L 433.55 -4.79 L 431.55 -7.7 Z M 443.17 -7.7 L 443.28 -5.28 L 444.38 -5.28 L 444.49 -7.7 Z M 444.82 -7.7 L 444.93 -5.28 L 446.03 -5.28 L 446.14 -7.7 Z" stroke-linecap="round" />
</g>
</g>
</g>
</g>
</g>
</svg>